<svg width="24" height="24" viewBox="0 0 24 24" fill="none" xmlns="http://www.w3.org/2000/svg">
<path d="M3.50094 9.71698L11.4749 17.49C11.615 17.6265 11.8029 17.7029 11.9984 17.7029C12.194 17.7029 12.3819 17.6265 12.5219 17.49L20.4989 9.71698C20.5643 9.65339 20.6162 9.57736 20.6516 9.49337C20.6871 9.40938 20.7053 9.31915 20.7053 9.22799C20.7053 9.13682 20.6871 9.04659 20.6516 8.9626C20.6162 8.87861 20.5643 8.80258 20.4989 8.73899C20.365 8.60815 20.1852 8.53491 19.9979 8.53491C19.8107 8.53491 19.6309 8.60815 19.4969 8.73899L11.9984 16.0485L4.50144 8.73899C4.36756 8.6086 4.18807 8.53564 4.00119 8.53564C3.81431 8.53564 3.63482 8.6086 3.50094 8.73899C3.43563 8.80258 3.38371 8.87861 3.34827 8.9626C3.31282 9.04659 3.29456 9.13682 3.29456 9.22799C3.29456 9.31915 3.31282 9.40938 3.34827 9.49337C3.38371 9.57736 3.43563 9.65339 3.50094 9.71698V9.71698Z" fill="black"/>
</svg>
