<svg width="293" height="60" viewBox="0 0 293 60" fill="none" xmlns="http://www.w3.org/2000/svg">
<path d="M289.296 13.0435C289.393 12.6124 289.122 12.1844 288.691 12.0875L281.666 10.5081C281.235 10.4112 280.807 10.6821 280.71 11.1131C280.613 11.5442 280.884 11.9722 281.315 12.0691L287.559 13.473L286.155 19.7172C286.058 20.1482 286.329 20.5763 286.76 20.6732C287.191 20.7701 287.619 20.4992 287.716 20.0681L289.296 13.0435ZM286.264 15.2396L288.943 13.544L288.087 12.192L285.408 13.8876L286.264 15.2396Z" fill="#EF892A"/>
<path d="M1 10.8489C51.5569 42.1903 179.695 86.64 287.794 13.7081" stroke="#EF892A" stroke-width="1.6"/>
</svg>