<svg width="36" height="36" viewBox="0 0 36 36" fill="none" xmlns="http://www.w3.org/2000/svg">
<path d="M21 4.5V10.5C21 10.8978 21.158 11.2794 21.4393 11.5607C21.7206 11.842 22.1022 12 22.5 12H28.5" stroke="#5CC966" stroke-width="2" stroke-linecap="round" stroke-linejoin="round"/>
<path d="M18 31.5H10.5C9.70435 31.5 8.94129 31.1839 8.37868 30.6213C7.81607 30.0587 7.5 29.2956 7.5 28.5V7.5C7.5 6.70435 7.81607 5.94129 8.37868 5.37868C8.94129 4.81607 9.70435 4.5 10.5 4.5H21L28.5 12V18.75" stroke="#5CC966" stroke-width="2" stroke-linecap="round" stroke-linejoin="round"/>
<path d="M24.75 30C26.8211 30 28.5 28.3211 28.5 26.25C28.5 24.1789 26.8211 22.5 24.75 22.5C22.6789 22.5 21 24.1789 21 26.25C21 28.3211 22.6789 30 24.75 30Z" stroke="#5CC966" stroke-width="2" stroke-linecap="round" stroke-linejoin="round"/>
<path d="M27.75 29.25L31.5 33" stroke="#5CC966" stroke-width="2" stroke-linecap="round" stroke-linejoin="round"/>
</svg>