<svg width="36" height="36" viewBox="0 0 36 36" fill="none" xmlns="http://www.w3.org/2000/svg">
<path d="M15 21.0006C15.4888 21.4995 16.0723 21.8958 16.7162 22.1664C17.3601 22.437 18.0515 22.5763 18.75 22.5763C19.4485 22.5763 20.1399 22.437 20.7838 22.1664C21.4277 21.8958 22.0112 21.4995 22.5 21.0006L28.5 15.0006C29.4946 14.006 30.0533 12.6571 30.0533 11.2506C30.0533 9.84404 29.4946 8.49513 28.5 7.50057C27.5054 6.506 26.1565 5.94727 24.75 5.94727C23.3435 5.94727 21.9946 6.506 21 7.50057L20.25 8.25057" stroke="#5CC966" stroke-width="2" stroke-linecap="round" stroke-linejoin="round"/>
<path d="M21.0001 15.0006C20.5113 14.5017 19.9278 14.1053 19.2839 13.8348C18.64 13.5642 17.9485 13.4248 17.2501 13.4248C16.5516 13.4248 15.8602 13.5642 15.2163 13.8348C14.5724 14.1053 13.9889 14.5017 13.5001 15.0006L7.50008 21.0006C6.50552 21.9951 5.94678 23.344 5.94678 24.7506C5.94678 26.1571 6.50552 27.506 7.50008 28.5006C8.49464 29.4951 9.84356 30.0539 11.2501 30.0539C12.6566 30.0539 14.0055 29.4951 15.0001 28.5006L15.7501 27.7506" stroke="#5CC966" stroke-width="2" stroke-linecap="round" stroke-linejoin="round"/>
</svg>