<svg width="36" height="36" viewBox="0 0 36 36" fill="none" xmlns="http://www.w3.org/2000/svg">
<path d="M13.5 22.5L22.5 13.5" stroke="#5CC966" stroke-width="2" stroke-linecap="round" stroke-linejoin="round"/>
<path d="M14.25 15C14.6642 15 15 14.6642 15 14.25C15 13.8358 14.6642 13.5 14.25 13.5C13.8358 13.5 13.5 13.8358 13.5 14.25C13.5 14.6642 13.8358 15 14.25 15Z" fill="#5CC966" stroke="#5CC966" stroke-width="2" stroke-linecap="round" stroke-linejoin="round"/>
<path d="M21.75 22.5C22.1642 22.5 22.5 22.1642 22.5 21.75C22.5 21.3358 22.1642 21 21.75 21C21.3358 21 21 21.3358 21 21.75C21 22.1642 21.3358 22.5 21.75 22.5Z" fill="#5CC966" stroke="#5CC966" stroke-width="2" stroke-linecap="round" stroke-linejoin="round"/>
<rect x="4.5" y="4.5" width="27" height="27" rx="4" stroke="#5CC966" stroke-width="2"/>
</svg>