<svg width="36" height="36" viewBox="0 0 36 36" fill="none" xmlns="http://www.w3.org/2000/svg">
<path d="M22.5 4.5V10.5C22.5 10.8978 22.658 11.2794 22.9393 11.5607C23.2206 11.842 23.6022 12 24 12H30" stroke="#5CC966" stroke-width="2" stroke-linecap="round" stroke-linejoin="round"/>
<path d="M27 25.5H16.5C15.7044 25.5 14.9413 25.1839 14.3787 24.6213C13.8161 24.0587 13.5 23.2956 13.5 22.5V7.5C13.5 6.70435 13.8161 5.94129 14.3787 5.37868C14.9413 4.81607 15.7044 4.5 16.5 4.5H22.5L30 12V22.5C30 23.2956 29.6839 24.0587 29.1213 24.6213C28.5587 25.1839 27.7956 25.5 27 25.5Z" stroke="#5CC966" stroke-width="2" stroke-linecap="round" stroke-linejoin="round"/>
<path d="M24 25.5V28.5C24 29.2957 23.6839 30.0587 23.1213 30.6213C22.5587 31.1839 21.7956 31.5 21 31.5H10.5C9.70435 31.5 8.94129 31.1839 8.37868 30.6213C7.81607 30.0587 7.5 29.2957 7.5 28.5V13.5C7.5 12.7044 7.81607 11.9413 8.37868 11.3787C8.94129 10.8161 9.70435 10.5 10.5 10.5H13.5" stroke="#5CC966" stroke-width="2" stroke-linecap="round" stroke-linejoin="round"/>
</svg>