<svg width="113" height="84" viewBox="0 0 113 84" fill="none" xmlns="http://www.w3.org/2000/svg">
<path d="M84.8383 40.404L77.8005 40.404C75.4209 40.404 73.4968 38.48 73.4968 36.1003L73.4969 4.30368C73.4969 1.924 75.4209 -1.08341e-05 77.8005 -1.0626e-05L107.774 -8.00563e-06C110.154 -7.7976e-06 112.078 1.924 112.078 4.30369L112.078 34.0244C112.078 64.8084 98.5089 79.7448 71.5728 83.9472C69.3957 84.3016 67.3198 82.8333 66.8135 80.7068L65.1426 74.0234C64.5857 71.8462 65.8008 69.5678 67.9274 68.9096C81.9017 64.8591 88.7876 56.2011 89.142 44.9102C89.2433 42.4293 87.2686 40.404 84.8383 40.404ZM19.8274 40.404L12.7896 40.404C10.4099 40.404 8.48588 38.48 8.48588 36.1003L8.48588 4.30368C8.48589 1.92399 10.4099 -1.65175e-05 12.7896 -1.63095e-05L43.0673 -1.36625e-05C45.4469 -1.34545e-05 47.3709 1.924 47.3709 4.30368L47.3709 34.0244C47.3709 64.8084 33.4979 79.7448 6.56187 83.9472C4.38471 84.3016 2.30882 82.8333 1.8025 80.7068L0.131654 74.0234C-0.425292 71.7956 0.840501 69.5172 3.01766 68.9096C17.1439 64.8591 23.8273 56.2011 24.1817 44.8596C24.2323 42.4293 22.2577 40.404 19.8274 40.404Z" fill="#0086D3"/>
</svg>