<svg width="36" height="36" viewBox="0 0 36 36" fill="none" xmlns="http://www.w3.org/2000/svg">
<path d="M13.5 6V33M9 6H25.5C26.2957 6 27.0587 6.31607 27.6213 6.87868C28.1839 7.44129 28.5 8.20435 28.5 9V27C28.5 27.7957 28.1839 28.5587 27.6213 29.1213C27.0587 29.6839 26.2957 30 25.5 30H9C8.60218 30 8.22064 29.842 7.93934 29.5607C7.65804 29.2794 7.5 28.8978 7.5 28.5V7.5C7.5 7.10218 7.65804 6.72064 7.93934 6.43934C8.22064 6.15804 8.60218 6 9 6V6Z" stroke="#0086D3" stroke-width="2" stroke-linecap="round" stroke-linejoin="round"/>
<path d="M19.5 12H22.5" stroke="#0086D3" stroke-width="2" stroke-linecap="round" stroke-linejoin="round"/>
<path d="M19.5 18H22.5" stroke="#0086D3" stroke-width="2" stroke-linecap="round" stroke-linejoin="round"/>
</svg>