<svg width="36" height="36" viewBox="0 0 36 36" fill="none" xmlns="http://www.w3.org/2000/svg">
<path d="M17.6925 31.5H7.5C6.70435 31.5 5.94129 31.1839 5.37868 30.6213C4.81607 30.0587 4.5 29.2956 4.5 28.5V10.5C4.5 9.70435 4.81607 8.94129 5.37868 8.37868C5.94129 7.81607 6.70435 7.5 7.5 7.5H25.5C26.2956 7.5 27.0587 7.81607 27.6213 8.37868C28.1839 8.94129 28.5 9.70435 28.5 10.5V16.5" stroke="#0086D3" stroke-width="2" stroke-linecap="round" stroke-linejoin="round"/>
<path d="M27 33C30.3137 33 33 30.3137 33 27C33 23.6863 30.3137 21 27 21C23.6863 21 21 23.6863 21 27C21 30.3137 23.6863 33 27 33Z" stroke="#0086D3" stroke-width="2" stroke-linecap="round" stroke-linejoin="round"/>
<path d="M22.5 4.5V10.5" stroke="#0086D3" stroke-width="2" stroke-linecap="round" stroke-linejoin="round"/>
<path d="M10.5 4.5V10.5" stroke="#0086D3" stroke-width="2" stroke-linecap="round" stroke-linejoin="round"/>
<path d="M4.5 16.5H28.5" stroke="#0086D3" stroke-width="2" stroke-linecap="round" stroke-linejoin="round"/>
<path d="M27 24.7441V27.0001L28.5 28.5001" stroke="#0086D3" stroke-width="2" stroke-linecap="round" stroke-linejoin="round"/>
</svg>